<svg width="1440" height="1020" viewBox="0 0 1440 1020" fill="none" xmlns="http://www.w3.org/2000/svg">
<g opacity="0.04">
<path d="M-89.3623 704.192C-110.826 710.47 -127.885 709.662 -140.539 701.767C-153.104 693.845 -162.798 678.223 -169.619 654.901L-176.337 631.934L-129.846 618.336L-121.254 647.712C-119.666 653.142 -117.615 657.181 -115.1 659.828C-112.523 662.359 -109.186 663.026 -105.089 661.828C-100.814 660.577 -98.2392 658.471 -97.3651 655.51C-96.4019 652.523 -96.7535 648.18 -98.4199 642.483C-100.529 635.272 -102.999 629.472 -105.83 625.082C-108.687 620.603 -112.534 616.703 -117.373 613.383C-122.148 609.948 -128.512 606.205 -136.465 602.153L-163.431 588.297C-183.543 578.042 -196.398 563.345 -201.996 544.205C-207.854 524.176 -207.688 507.555 -201.498 494.342C-195.219 481.102 -183.262 471.904 -165.627 466.746C-144.074 460.442 -127.121 461.716 -114.767 470.569C-102.324 479.395 -92.6783 495.514 -85.8307 518.926L-133.657 532.915L-138.383 516.758C-139.32 513.553 -140.984 511.334 -143.375 510.101C-145.677 508.841 -148.387 508.668 -151.504 509.579C-155.245 510.673 -157.693 512.549 -158.85 515.206C-159.943 517.749 -160.008 520.667 -159.045 523.961C-158.081 527.254 -156.149 530.555 -153.248 533.861C-150.348 537.168 -145.541 540.546 -138.828 543.994L-104.093 562.1C-97.1499 565.674 -90.5612 569.69 -84.3266 574.148C-78.1181 578.516 -72.5138 584.125 -67.5137 590.973C-62.5397 597.732 -58.4514 606.586 -55.2489 617.535C-48.7919 639.612 -47.8246 658.125 -52.3472 673.073C-56.8068 687.906 -69.1452 698.279 -89.3623 704.192Z" fill="#2F5DD3"/>
<path d="M35.9485 667.541C18.9376 672.516 3.67277 671.231 -9.84587 663.686C-23.2755 656.114 -32.7762 642.803 -38.348 623.753L-70.0605 515.328C-76.7258 492.54 -77.3313 473.776 -71.877 459.039C-66.3336 444.275 -53.3642 433.911 -32.9689 427.946C-21.8361 424.689 -11.3514 423.845 -1.51462 425.413C8.41117 426.955 17.0655 431.092 24.4484 437.823C31.8052 444.465 37.2931 453.973 40.9122 466.346L52.7849 506.939L6.02709 520.615L-4.12715 485.897C-6.18404 478.865 -8.45461 474.407 -10.9388 472.525C-13.4491 470.553 -16.5746 470.115 -20.3152 471.209C-24.6792 472.485 -27.1496 474.947 -27.7264 478.595C-28.3292 482.153 -27.8625 486.558 -26.3263 491.811L8.08093 609.449C9.9816 615.947 12.2576 620.258 14.909 622.382C17.6495 624.479 20.801 625.007 24.3635 623.965C28.3713 622.793 30.6951 620.326 31.3349 616.563C32.0637 612.774 31.66 608.254 30.1239 603.002L17.7435 560.673L65.0357 546.841L78.0409 591.306C84.0814 611.959 83.2584 628.482 75.5719 640.877C67.8594 653.183 54.6516 662.071 35.9485 667.541Z" fill="#2F5DD3"/>
<path d="M108.266 644.07L39.5293 409.06L84.9511 395.775L153.688 630.785L108.266 644.07Z" fill="#2F5DD3"/>
<path d="M172.391 625.315L103.654 390.305L197.704 362.797L210.983 408.196L164.759 421.716L178.155 467.516L222.508 454.544L235.435 498.742L191.082 511.714L206.821 565.526L256.117 551.108L269.513 596.908L172.391 625.315Z" fill="#2F5DD3"/>
<path d="M285.144 592.336L216.407 357.326L264.768 343.182L319.334 449.416L286.41 336.852L331.832 323.567L400.569 558.577L354.612 572.018L296.732 461.39L331.1 578.895L285.144 592.336Z" fill="#2F5DD3"/>
<path d="M476.807 538.597C459.797 543.573 444.532 542.288 431.013 534.742C417.584 527.171 408.083 513.86 402.511 494.81L370.799 386.385C364.133 363.596 363.528 344.833 368.982 330.095C374.525 315.331 387.495 304.967 407.89 299.002C419.023 295.746 429.508 294.902 439.344 296.47C449.27 298.012 457.924 302.148 465.307 308.879C472.664 315.521 478.152 325.029 481.771 337.403L493.644 377.995L446.886 391.671L436.732 356.954C434.675 349.921 432.404 345.464 429.92 343.581C427.41 341.61 424.284 341.171 420.544 342.265C416.18 343.541 413.709 346.003 413.133 349.651C412.53 353.209 412.997 357.615 414.533 362.867L448.94 480.505C450.841 487.004 453.117 491.315 455.768 493.438C458.508 495.536 461.66 496.063 465.222 495.021C469.23 493.849 471.554 491.382 472.194 487.619C472.923 483.831 472.519 479.31 470.983 474.058L458.602 431.73L505.895 417.897L518.9 462.362C524.94 483.015 524.117 499.538 516.431 511.933C508.718 524.239 495.511 533.127 476.807 538.597Z" fill="#2F5DD3"/>
<path d="M551.262 514.501L482.526 279.491L576.576 251.983L589.854 297.383L543.631 310.903L557.027 356.703L601.38 343.73L614.307 387.928L569.954 400.901L585.693 454.713L634.989 440.294L648.385 486.095L551.262 514.501Z" fill="#2F5DD3"/>
<path d="M772.049 452.244C750.585 458.522 733.526 457.713 720.872 449.818C708.307 441.897 698.614 426.275 691.792 402.952L685.075 379.985L731.566 366.388L740.158 395.764C741.746 401.194 743.797 405.233 746.312 407.879C748.889 410.411 752.226 411.078 756.323 409.879C760.598 408.629 763.173 406.523 764.047 403.562C765.01 400.574 764.658 396.232 762.992 390.535C760.883 383.324 758.413 377.524 755.582 373.134C752.725 368.654 748.877 364.755 744.039 361.435C739.264 358 732.9 354.256 724.947 350.205L697.981 336.349C677.869 326.094 665.014 311.396 659.416 292.257C653.558 272.228 653.724 255.607 659.914 242.393C666.193 229.154 678.15 219.955 695.784 214.798C717.337 208.494 734.291 209.768 746.645 218.62C759.088 227.447 768.733 243.566 775.581 266.978L727.755 280.966L723.029 264.81C722.092 261.605 720.427 259.386 718.036 258.152C715.734 256.893 713.025 256.719 709.908 257.631C706.167 258.725 703.718 260.601 702.562 263.258C701.469 265.801 701.404 268.719 702.367 272.012C703.33 275.306 705.263 278.606 708.163 281.913C711.064 285.22 715.871 288.597 722.584 292.046L757.319 310.152C764.262 313.726 770.851 317.742 777.085 322.199C783.294 326.568 788.898 332.176 793.898 339.025C798.872 345.784 802.96 354.638 806.163 365.587C812.62 387.664 813.587 406.176 809.064 421.124C804.605 435.958 792.267 446.331 772.049 452.244Z" fill="#242A38"/>
<path d="M897.36 415.593C880.349 420.568 865.085 419.283 851.566 411.738C838.136 404.166 828.635 390.855 823.064 371.805L791.351 263.38C784.686 240.591 784.08 221.828 789.535 207.091C795.078 192.327 808.047 181.963 828.443 175.997C839.576 172.741 850.06 171.897 859.897 173.465C869.823 175.007 878.477 179.144 885.86 185.875C893.217 192.517 898.705 202.024 902.324 214.398L914.197 254.991L867.439 268.667L857.285 233.949C855.228 226.917 852.957 222.459 850.473 220.577C847.963 218.605 844.837 218.166 841.097 219.26C836.732 220.537 834.262 222.999 833.685 226.646C833.083 230.205 833.549 234.61 835.085 239.862L869.493 357.501C871.393 363.999 873.669 368.31 876.321 370.434C879.061 372.531 882.213 373.059 885.775 372.017C889.783 370.845 892.107 368.377 892.747 364.615C893.475 360.826 893.072 356.306 891.536 351.054L879.155 308.725L926.447 294.893L939.453 339.358C945.493 360.01 944.67 376.534 936.984 388.929C929.271 401.234 916.063 410.122 897.36 415.593Z" fill="#242A38"/>
<path d="M969.677 392.122L900.941 157.112L946.363 143.827L1015.1 378.837L969.677 392.122Z" fill="#242A38"/>
<path d="M1033.8 373.366L965.066 138.357L1059.12 110.849L1072.39 156.248L1026.17 169.768L1039.57 215.568L1083.92 202.595L1096.85 246.793L1052.49 259.766L1068.23 313.578L1117.53 299.16L1130.92 344.96L1033.8 373.366Z" fill="#242A38"/>
<path d="M1146.56 340.388L1077.82 105.378L1126.18 91.2334L1180.75 197.468L1147.82 84.9035L1193.24 71.6184L1261.98 306.628L1216.02 320.07L1158.14 209.442L1192.51 326.947L1146.56 340.388Z" fill="#242A38"/>
<path d="M1338.22 286.649C1321.21 291.624 1305.94 290.339 1292.42 282.794C1279 275.222 1269.49 261.911 1263.92 242.861L1232.21 134.436C1225.54 111.648 1224.94 92.8844 1230.39 78.1468C1235.94 63.3832 1248.91 53.0188 1269.3 47.0535C1280.43 43.7974 1290.92 42.9533 1300.76 44.5214C1310.68 46.0635 1319.34 50.2 1326.72 56.931C1334.08 63.5729 1339.56 73.0807 1343.18 85.4543L1355.06 126.047L1308.3 139.723L1298.14 105.005C1296.09 97.9729 1293.82 93.5154 1291.33 91.6329C1288.82 89.6614 1285.7 89.2226 1281.96 90.3167C1277.59 91.5931 1275.12 94.0551 1274.54 97.7026C1273.94 101.261 1274.41 105.666 1275.94 110.919L1310.35 228.557C1312.25 235.055 1314.53 239.366 1317.18 241.49C1319.92 243.587 1323.07 244.115 1326.63 243.073C1330.64 241.901 1332.97 239.434 1333.61 235.671C1334.33 231.882 1333.93 227.362 1332.39 222.11L1320.01 179.781L1367.31 165.949L1380.31 210.414C1386.35 231.066 1385.53 247.59 1377.84 259.985C1370.13 272.291 1356.92 281.179 1338.22 286.649Z" fill="#242A38"/>
<path d="M1412.67 262.553L1343.94 27.5431L1437.99 0.0350407L1451.27 45.4347L1405.04 58.9542L1418.44 104.754L1462.79 91.782L1475.72 135.98L1431.37 148.952L1447.1 202.764L1496.4 188.346L1509.8 234.146L1412.67 262.553Z" fill="#242A38"/>
<path d="M5.61885 1028.93C-15.8452 1035.21 -32.9042 1034.4 -45.5583 1026.51C-58.1233 1018.59 -67.8166 1002.96 -74.6381 979.641L-81.3556 956.675L-34.865 943.077L-26.2729 972.453C-24.6847 977.883 -22.6334 981.922 -20.119 984.569C-17.5416 987.1 -14.2044 987.767 -10.1075 986.569C-5.83254 985.318 -3.258 983.212 -2.38389 980.251C-1.42073 977.264 -1.77232 972.921 -3.43866 967.224C-5.54761 960.013 -8.01758 954.213 -10.8485 949.823C-13.7056 945.344 -17.5532 941.444 -22.3915 938.124C-27.1667 934.689 -33.5308 930.946 -41.4835 926.894L-68.4496 913.038C-88.5617 902.783 -101.417 888.086 -107.015 868.946C-112.873 848.917 -112.707 832.296 -106.517 819.083C-100.237 805.843 -88.2806 796.645 -70.6462 791.487C-49.0931 785.183 -32.1395 786.457 -19.7855 795.31C-7.34243 804.136 2.30291 820.255 9.15051 843.667L-38.676 857.656L-43.4016 841.499C-44.339 838.294 -46.0031 836.075 -48.3942 834.842C-50.6962 833.582 -53.4057 833.408 -56.5229 834.32C-60.2635 835.414 -62.712 837.29 -63.8684 839.947C-64.9618 842.49 -65.0268 845.408 -64.0634 848.702C-63.1 851.995 -61.168 855.296 -58.2671 858.602C-55.3663 861.909 -50.5595 865.287 -43.8468 868.735L-9.11163 886.841C-2.16871 890.415 4.42003 894.431 10.6546 898.889C16.8631 903.257 22.4674 908.866 27.4675 915.714C32.4415 922.473 36.5298 931.327 39.7323 942.276C46.1893 964.353 47.1566 982.865 42.634 997.814C38.1744 1012.65 25.836 1023.02 5.61885 1028.93Z" fill="#242A38"/>
<path d="M130.93 992.282C113.919 997.257 98.654 995.972 85.1353 988.427C71.7057 980.855 62.205 967.544 56.6332 948.494L24.9207 840.069C18.2554 817.281 17.6499 798.517 23.1042 783.78C28.6476 769.016 41.617 758.652 62.0123 752.686C73.1451 749.43 83.6298 748.586 93.4666 750.154C103.392 751.696 112.047 755.833 119.43 762.564C126.786 769.206 132.274 778.714 135.893 791.087L147.766 831.68L101.008 845.356L90.8541 810.638C88.7972 803.606 86.5266 799.148 84.0424 797.266C81.5321 795.294 78.4066 794.856 74.666 795.95C70.302 797.226 67.8316 799.688 67.2548 803.336C66.652 806.894 67.1187 811.299 68.6549 816.551L103.062 934.19C104.963 940.688 107.239 944.999 109.89 947.123C112.631 949.22 115.782 949.748 119.345 948.706C123.352 947.534 125.676 945.066 126.316 941.304C127.045 937.515 126.641 932.995 125.105 927.743L112.725 885.414L160.017 871.582L173.022 916.047C179.063 936.699 178.24 953.223 170.553 965.618C162.841 977.924 149.633 986.812 130.93 992.282Z" fill="#242A38"/>
<path d="M203.247 968.811L134.511 733.801L179.932 720.516L248.669 955.526L203.247 968.811Z" fill="#242A38"/>
<path d="M267.372 950.056L198.635 715.046L292.685 687.538L305.964 732.937L259.741 746.457L273.136 792.257L317.489 779.285L330.417 823.483L286.064 836.455L301.803 890.267L351.099 875.849L364.494 921.649L267.372 950.056Z" fill="#242A38"/>
<path d="M380.125 917.077L311.388 682.067L359.749 667.923L414.315 774.157L381.392 661.593L426.813 648.308L495.55 883.317L449.594 896.759L391.713 786.131L426.081 903.636L380.125 917.077Z" fill="#242A38"/>
<path d="M571.789 863.338C554.778 868.314 539.513 867.029 525.994 859.483C512.565 851.911 503.064 838.601 497.492 819.551L465.78 711.126C459.114 688.337 458.509 669.574 463.963 654.836C469.507 640.072 482.476 629.708 502.871 623.743C514.004 620.487 524.489 619.643 534.326 621.211C544.251 622.753 552.906 626.889 560.289 633.62C567.645 640.262 573.133 649.77 576.752 662.144L588.625 702.736L541.867 716.412L531.713 681.695C529.656 674.662 527.386 670.205 524.901 668.322C522.391 666.351 519.266 665.912 515.525 667.006C511.161 668.282 508.691 670.744 508.114 674.392C507.511 677.95 507.978 682.356 509.514 687.608L543.921 805.246C545.822 811.745 548.098 816.056 550.749 818.179C553.49 820.277 556.641 820.804 560.204 819.762C564.211 818.59 566.535 816.123 567.175 812.36C567.904 808.572 567.5 804.051 565.964 798.799L553.584 756.471L600.876 742.638L613.881 787.103C619.922 807.756 619.099 824.279 611.412 836.674C603.7 848.98 590.492 857.868 571.789 863.338Z" fill="#242A38"/>
<path d="M646.243 839.242L577.507 604.232L671.557 576.724L684.836 622.124L638.612 635.643L652.008 681.444L696.361 668.471L709.288 712.669L664.935 725.642L680.674 779.453L729.97 765.035L743.366 810.835L646.243 839.242Z" fill="#242A38"/>
<path d="M867.031 776.985C845.566 783.263 828.508 782.454 815.853 774.559C803.288 766.638 793.595 751.016 786.774 727.693L780.056 704.726L826.547 691.129L835.139 720.505C836.727 725.935 838.778 729.973 841.293 732.62C843.87 735.152 847.207 735.819 851.304 734.62C855.579 733.37 858.154 731.264 859.028 728.303C859.991 725.315 859.639 720.973 857.973 715.276C855.864 708.065 853.394 702.265 850.563 697.875C847.706 693.395 843.859 689.496 839.02 686.176C834.245 682.741 827.881 678.997 819.928 674.946L792.962 661.09C772.85 650.835 759.995 636.137 754.397 616.998C748.539 596.969 748.705 580.348 754.895 567.134C761.174 553.895 773.131 544.696 790.766 539.539C812.319 533.235 829.272 534.509 841.626 543.361C854.069 552.188 863.715 568.307 870.562 591.719L822.736 605.707L818.01 589.55C817.073 586.346 815.409 584.127 813.018 582.893C810.716 581.634 808.006 581.46 804.889 582.372C801.148 583.466 798.7 585.342 797.543 587.999C796.45 590.542 796.385 593.46 797.348 596.753C798.312 600.047 800.244 603.347 803.145 606.654C806.045 609.961 810.852 613.338 817.565 616.787L852.3 634.893C859.243 638.467 865.832 642.483 872.066 646.94C878.275 651.309 883.879 656.917 888.879 663.766C893.853 670.525 897.941 679.379 901.144 690.328C907.601 712.405 908.568 730.917 904.046 745.865C899.586 760.699 887.248 771.072 867.031 776.985Z" fill="#242A38"/>
<path d="M992.341 740.334C975.33 745.309 960.066 744.024 946.547 736.478C933.117 728.907 923.617 715.596 918.045 696.546L886.332 588.121C879.667 565.332 879.062 546.569 884.516 531.832C890.059 517.068 903.029 506.703 923.424 500.738C934.557 497.482 945.042 496.638 954.878 498.206C964.804 499.748 973.458 503.885 980.841 510.616C988.198 517.258 993.686 526.765 997.305 539.139L1009.18 579.732L962.42 593.407L952.266 558.69C950.209 551.658 947.938 547.2 945.454 545.318C942.944 543.346 939.818 542.907 936.078 544.001C931.714 545.278 929.243 547.74 928.667 551.387C928.064 554.946 928.53 559.351 930.067 564.603L964.474 682.242C966.375 688.74 968.651 693.051 971.302 695.175C974.042 697.272 977.194 697.8 980.756 696.758C984.764 695.586 987.088 693.118 987.728 689.356C988.457 685.567 988.053 681.047 986.517 675.794L974.136 633.466L1021.43 619.634L1034.43 664.099C1040.47 684.751 1039.65 701.275 1031.96 713.669C1024.25 725.975 1011.04 734.863 992.341 740.334Z" fill="#242A38"/>
<path d="M1064.66 716.863L995.922 481.853L1041.34 468.568L1110.08 703.578L1064.66 716.863Z" fill="#242A38"/>
<path d="M1128.78 698.107L1060.05 463.097L1154.1 435.589L1167.38 480.989L1121.15 494.509L1134.55 540.309L1178.9 527.336L1191.83 571.534L1147.48 584.507L1163.21 638.319L1212.51 623.9L1225.91 669.701L1128.78 698.107Z" fill="#242A38"/>
<path d="M1241.54 665.129L1172.8 430.119L1221.16 415.974L1275.73 522.209L1242.8 409.644L1288.23 396.359L1356.96 631.369L1311.01 644.811L1253.12 534.183L1287.49 651.688L1241.54 665.129Z" fill="#242A38"/>
<path d="M1433.2 611.39C1416.19 616.365 1400.92 615.08 1387.41 607.535C1373.98 599.963 1364.48 586.652 1358.9 567.602L1327.19 459.177C1320.53 436.389 1319.92 417.625 1325.37 402.888C1330.92 388.124 1343.89 377.76 1364.28 371.794C1375.42 368.538 1385.9 367.694 1395.74 369.262C1405.66 370.804 1414.32 374.941 1421.7 381.672C1429.06 388.314 1434.55 397.822 1438.16 410.195L1450.04 450.788L1403.28 464.464L1393.12 429.746C1391.07 422.714 1388.8 418.256 1386.31 416.374C1383.8 414.402 1380.68 413.964 1376.94 415.058C1372.57 416.334 1370.1 418.796 1369.53 422.444C1368.92 426.002 1369.39 430.407 1370.93 435.659L1405.33 553.298C1407.23 559.796 1409.51 564.107 1412.16 566.231C1414.9 568.328 1418.05 568.856 1421.62 567.814C1425.62 566.642 1427.95 564.174 1428.59 560.412C1429.32 556.623 1428.91 552.103 1427.38 546.851L1415 504.522L1462.29 490.69L1475.29 535.155C1481.33 555.807 1480.51 572.331 1472.82 584.726C1465.11 597.032 1451.9 605.92 1433.2 611.39Z" fill="#242A38"/>
<path d="M1507.66 587.294L1438.92 352.284L1532.97 324.776L1546.25 370.176L1500.02 383.695L1513.42 429.495L1557.77 416.523L1570.7 460.721L1526.35 473.693L1542.09 527.505L1591.38 513.087L1604.78 558.887L1507.66 587.294Z" fill="#242A38"/>
<path d="M100.6 1353.67C79.136 1359.95 62.077 1359.14 49.4229 1351.25C36.8579 1343.33 27.1646 1327.71 20.3431 1304.38L13.6256 1281.42L60.1162 1267.82L68.7083 1297.19C70.2965 1302.62 72.3478 1306.66 74.8622 1309.31C77.4396 1311.84 80.7768 1312.51 84.8737 1311.31C89.1487 1310.06 91.7232 1307.95 92.5973 1304.99C93.5605 1302 93.2089 1297.66 91.5426 1291.96C89.4336 1284.75 86.9636 1278.95 84.1327 1274.56C81.2756 1270.08 77.428 1266.18 72.5897 1262.87C67.8145 1259.43 61.4504 1255.69 53.4977 1251.63L26.5316 1237.78C6.4195 1227.52 -6.4355 1212.83 -12.0333 1193.69C-17.8916 1173.66 -17.7256 1157.04 -11.5354 1143.82C-5.25615 1130.58 6.70065 1121.39 24.335 1116.23C45.8881 1109.92 62.8417 1111.2 75.1957 1120.05C87.6388 1128.88 97.2841 1145 104.132 1168.41L56.3052 1182.4L51.5796 1166.24C50.6423 1163.04 48.9781 1160.82 46.587 1159.58C44.2851 1158.32 41.5755 1158.15 38.4583 1159.06C34.7177 1160.16 32.2692 1162.03 31.1128 1164.69C30.0195 1167.23 29.9544 1170.15 30.9178 1173.44C31.8812 1176.74 33.8132 1180.04 36.7141 1183.34C39.6149 1186.65 44.4217 1190.03 51.1344 1193.48L85.8696 1211.58C92.8125 1215.16 99.4012 1219.17 105.636 1223.63C111.844 1228 117.449 1233.61 122.449 1240.45C127.423 1247.21 131.511 1256.07 134.713 1267.02C141.171 1289.09 142.138 1307.61 137.615 1322.55C133.156 1337.39 120.817 1347.76 100.6 1353.67Z" fill="#242A38"/>
<path d="M225.911 1317.02C208.9 1322 193.635 1320.71 180.117 1313.17C166.687 1305.6 157.186 1292.29 151.614 1273.24L119.902 1164.81C113.237 1142.02 112.631 1123.26 118.085 1108.52C123.629 1093.76 136.598 1083.39 156.993 1077.43C168.126 1074.17 178.611 1073.33 188.448 1074.9C198.374 1076.44 207.028 1080.57 214.411 1087.3C221.768 1093.95 227.256 1103.45 230.875 1115.83L242.747 1156.42L195.989 1170.1L185.835 1135.38C183.778 1128.35 181.508 1123.89 179.024 1122.01C176.513 1120.04 173.388 1119.6 169.647 1120.69C165.283 1121.97 162.813 1124.43 162.236 1128.08C161.633 1131.63 162.1 1136.04 163.636 1141.29L198.043 1258.93C199.944 1265.43 202.22 1269.74 204.871 1271.86C207.612 1273.96 210.763 1274.49 214.326 1273.45C218.334 1272.27 220.657 1269.81 221.297 1266.04C222.026 1262.26 221.622 1257.74 220.086 1252.48L207.706 1210.16L254.998 1196.32L268.003 1240.79C274.044 1261.44 273.221 1277.96 265.534 1290.36C257.822 1302.66 244.614 1311.55 225.911 1317.02Z" fill="#242A38"/>
<path d="M298.228 1293.55L229.492 1058.54L274.914 1045.26L343.65 1280.27L298.228 1293.55Z" fill="#242A38"/>
<path d="M362.353 1274.8L293.617 1039.79L387.667 1012.28L400.945 1057.68L354.722 1071.2L368.118 1117L412.471 1104.03L425.398 1148.22L381.045 1161.2L396.784 1215.01L446.08 1200.59L459.476 1246.39L362.353 1274.8Z" fill="#242A38"/>
<path d="M475.106 1241.82L406.37 1006.81L454.731 992.664L509.296 1098.9L476.373 986.334L521.795 973.049L590.531 1208.06L544.575 1221.5L486.694 1110.87L521.062 1228.38L475.106 1241.82Z" fill="#242A38"/>
<path d="M666.77 1188.08C649.759 1193.05 634.494 1191.77 620.976 1184.22C607.546 1176.65 598.045 1163.34 592.473 1144.29L560.761 1035.87C554.096 1013.08 553.49 994.315 558.944 979.577C564.488 964.813 577.457 954.449 597.852 948.484C608.985 945.228 619.47 944.384 629.307 945.952C639.233 947.494 647.887 951.63 655.27 958.361C662.627 965.003 668.115 974.511 671.734 986.885L683.606 1027.48L636.848 1041.15L626.694 1006.44C624.637 999.403 622.367 994.946 619.883 993.063C617.372 991.092 614.247 990.653 610.506 991.747C606.142 993.023 603.672 995.485 603.095 999.133C602.492 1002.69 602.959 1007.1 604.495 1012.35L638.902 1129.99C640.803 1136.49 643.079 1140.8 645.73 1142.92C648.471 1145.02 651.622 1145.55 655.185 1144.5C659.193 1143.33 661.516 1140.86 662.156 1137.1C662.885 1133.31 662.481 1128.79 660.945 1123.54L648.565 1081.21L695.857 1067.38L708.862 1111.84C714.903 1132.5 714.08 1149.02 706.393 1161.41C698.681 1173.72 685.473 1182.61 666.77 1188.08Z" fill="#242A38"/>
<path d="M741.225 1163.98L672.488 928.973L766.538 901.465L779.817 946.865L733.593 960.384L746.989 1006.18L791.342 993.212L804.269 1037.41L759.916 1050.38L775.655 1104.19L824.951 1089.78L838.347 1135.58L741.225 1163.98Z" fill="#242A38"/>
<path d="M962.012 1101.73C940.548 1108 923.489 1107.2 910.835 1099.3C898.27 1091.38 888.576 1075.76 881.755 1052.43L875.037 1029.47L921.528 1015.87L930.12 1045.25C931.708 1050.68 933.76 1054.71 936.274 1057.36C938.851 1059.89 942.189 1060.56 946.285 1059.36C950.56 1058.11 953.135 1056.01 954.009 1053.04C954.972 1050.06 954.621 1045.71 952.954 1040.02C950.845 1032.81 948.375 1027.01 945.544 1022.62C942.687 1018.14 938.84 1014.24 934.001 1010.92C929.226 1007.48 922.862 1003.74 914.909 999.686L887.943 985.831C867.831 975.575 854.976 960.878 849.378 941.739C843.52 921.71 843.686 905.089 849.876 891.875C856.156 878.636 868.112 869.437 885.747 864.279C907.3 857.976 924.253 859.25 936.607 868.102C949.05 876.929 958.696 893.048 965.543 916.46L917.717 930.448L912.991 914.291C912.054 911.087 910.39 908.868 907.999 907.634C905.697 906.375 902.987 906.201 899.87 907.113C896.129 908.207 893.681 910.083 892.525 912.74C891.431 915.283 891.366 918.201 892.33 921.494C893.293 924.788 895.225 928.088 898.126 931.395C901.027 934.702 905.833 938.079 912.546 941.528L947.281 959.634C954.224 963.208 960.813 967.224 967.048 971.681C973.256 976.05 978.86 981.658 983.86 988.506C988.834 995.266 992.923 1004.12 996.125 1015.07C1002.58 1037.15 1003.55 1055.66 999.027 1070.61C994.567 1085.44 982.229 1095.81 962.012 1101.73Z" fill="#2F5DD3"/>
<path d="M1087.32 1065.07C1070.31 1070.05 1055.05 1068.76 1041.53 1061.22C1028.1 1053.65 1018.6 1040.34 1013.03 1021.29L981.314 912.862C974.648 890.073 974.043 871.31 979.497 856.572C985.041 841.809 998.01 831.444 1018.41 825.479C1029.54 822.223 1040.02 821.379 1049.86 822.947C1059.79 824.489 1068.44 828.626 1075.82 835.357C1083.18 841.999 1088.67 851.506 1092.29 863.88L1104.16 904.473L1057.4 918.148L1047.25 883.431C1045.19 876.399 1042.92 871.941 1040.44 870.059C1037.92 868.087 1034.8 867.648 1031.06 868.742C1026.69 870.019 1024.22 872.481 1023.65 876.128C1023.04 879.687 1023.51 884.092 1025.05 889.344L1059.46 1006.98C1061.36 1013.48 1063.63 1017.79 1066.28 1019.92C1069.02 1022.01 1072.18 1022.54 1075.74 1021.5C1079.75 1020.33 1082.07 1017.86 1082.71 1014.1C1083.44 1010.31 1083.03 1005.79 1081.5 1000.54L1069.12 958.207L1116.41 944.375L1129.42 988.84C1135.46 1009.49 1134.63 1026.02 1126.95 1038.41C1119.23 1050.72 1106.03 1059.6 1087.32 1065.07Z" fill="#2F5DD3"/>
<path d="M1159.64 1041.6L1090.9 806.594L1136.33 793.309L1205.06 1028.32L1159.64 1041.6Z" fill="#2F5DD3"/>
<path d="M1223.76 1022.85L1155.03 787.838L1249.08 760.33L1262.36 805.73L1216.13 819.25L1229.53 865.05L1273.88 852.077L1286.81 896.275L1242.46 909.248L1258.2 963.06L1307.49 948.641L1320.89 994.442L1223.76 1022.85Z" fill="#2F5DD3"/>
<path d="M1336.52 989.87L1267.78 754.86L1316.14 740.715L1370.71 846.95L1337.78 734.385L1383.21 721.1L1451.94 956.11L1405.99 969.552L1348.11 858.924L1382.47 976.429L1336.52 989.87Z" fill="#2F5DD3"/>
<path d="M1528.18 936.131C1511.17 941.106 1495.91 939.821 1482.39 932.276C1468.96 924.704 1459.46 911.393 1453.89 892.343L1422.17 783.918C1415.51 761.129 1414.9 742.366 1420.36 727.629C1425.9 712.865 1438.87 702.501 1459.26 696.535C1470.4 693.279 1480.88 692.435 1490.72 694.003C1500.64 695.545 1509.3 699.682 1516.68 706.413C1524.04 713.055 1529.53 722.563 1533.15 734.936L1545.02 775.529L1498.26 789.205L1488.11 754.487C1486.05 747.455 1483.78 742.997 1481.29 741.115C1478.78 739.143 1475.66 738.705 1471.92 739.799C1467.55 741.075 1465.08 743.537 1464.51 747.185C1463.9 750.743 1464.37 755.148 1465.91 760.4L1500.31 878.039C1502.21 884.537 1504.49 888.848 1507.14 890.972C1509.88 893.069 1513.03 893.597 1516.6 892.555C1520.6 891.383 1522.93 888.915 1523.57 885.153C1524.3 881.364 1523.89 876.844 1522.36 871.592L1509.98 829.263L1557.27 815.431L1570.27 859.896C1576.31 880.548 1575.49 897.072 1567.81 909.467C1560.09 921.772 1546.88 930.66 1528.18 936.131Z" fill="#2F5DD3"/>
<path d="M1602.64 912.035L1533.9 677.025L1627.95 649.517L1641.23 694.917L1595.01 708.436L1608.4 754.236L1652.75 741.264L1665.68 785.462L1621.33 798.434L1637.07 852.246L1686.36 837.828L1699.76 883.628L1602.64 912.035Z" fill="#2F5DD3"/>
</g>
</svg>
