<svg width="24" height="24" viewBox="0 0 24 24" fill="none" xmlns="http://www.w3.org/2000/svg">
<path fill-rule="evenodd" clip-rule="evenodd" d="M18.8513 6.45119C18.9368 6.36578 19.0047 6.26436 19.051 6.15273C19.0973 6.04109 19.1212 5.92143 19.1213 5.80056C19.1213 5.6797 19.0976 5.56 19.0514 5.44831C19.0052 5.33661 18.9375 5.23511 18.8521 5.14959C18.7667 5.06408 18.6653 4.99622 18.5536 4.9499C18.442 4.90358 18.3223 4.8797 18.2015 4.87962C18.0806 4.87955 17.9609 4.90328 17.8492 4.94947C17.7375 4.99565 17.636 5.06338 17.5505 5.14879L12.0001 10.6992L6.45129 5.14879C6.27858 4.97609 6.04433 4.87906 5.80009 4.87906C5.55584 4.87906 5.3216 4.97609 5.14889 5.14879C4.97618 5.3215 4.87915 5.55575 4.87915 5.79999C4.87915 6.04424 4.97618 6.27849 5.14889 6.45119L10.6993 12L5.14889 17.5488C5.06337 17.6343 4.99553 17.7358 4.94925 17.8476C4.90297 17.9593 4.87915 18.0791 4.87915 18.2C4.87915 18.3209 4.90297 18.4407 4.94925 18.5524C4.99553 18.6642 5.06337 18.7657 5.14889 18.8512C5.3216 19.0239 5.55584 19.1209 5.80009 19.1209C5.92103 19.1209 6.04078 19.0971 6.15251 19.0508C6.26425 19.0045 6.36577 18.9367 6.45129 18.8512L12.0001 13.3008L17.5505 18.8512C17.7232 19.0237 17.9574 19.1205 18.2015 19.1204C18.4455 19.1202 18.6796 19.0231 18.8521 18.8504C19.0246 18.6777 19.1214 18.4435 19.1213 18.1994C19.1211 17.9553 19.024 17.7213 18.8513 17.5488L13.3009 12L18.8513 6.45119Z" fill="white"/>
</svg>
